<svg width="910" height="210" viewBox="0 0 910 210" fill="none" xmlns="http://www.w3.org/2000/svg">
<path d="M598.388 644.193C772.802 644.193 914.193 502.803 914.193 328.389C914.193 153.975 772.802 12.584 598.388 12.584C423.974 12.584 282.584 153.975 282.584 328.389C282.584 502.803 423.974 644.193 598.388 644.193Z" fill="#237CF2"/>
<path d="M600.401 587.871C742.598 587.871 857.872 472.597 857.872 330.4C857.872 188.203 742.598 72.9287 600.401 72.9287C458.203 72.9287 342.929 188.203 342.929 330.4C342.929 472.597 458.203 587.871 600.401 587.871Z" fill="#3289FC"/>
<path d="M598.389 515.457C701.704 515.457 785.458 431.704 785.458 328.388C785.458 225.073 701.704 141.319 598.389 141.319C495.074 141.319 411.32 225.073 411.32 328.388C411.32 431.704 495.074 515.457 598.389 515.457Z" fill="#4696FF"/>
</svg>
